<svg xmlns="http://www.w3.org/2000/svg" width="80" height="62" viewBox="0 0 80 62" xmlns:xlink="http://www.w3.org/1999/xlink">
  <defs>
    <polygon id="a" points="0 0 0 61.271 79.95 61.271 79.95 0 0 0"/>
  </defs>
  <g fill="none" fill-rule="evenodd">
    <mask id="b" fill="white">
      <use xlink:href="#a"/>
    </mask>
    <path fill="#3E53A4" d="M65.6275079,41.1517543 L59.2676341,28.3489705 L68.8328076,28.3489705 L75.1926814,41.1517543 L65.6275079,41.1517543 Z M68.1388013,57.6127304 L58.144858,57.6127304 L58.144858,42.0664929 C58.144858,41.0562415 57.3312303,40.2372698 56.327571,40.2372698 C55.324164,40.2372698 54.5105363,41.0562415 54.5105363,42.0664929 L54.5105363,57.6127304 L11.8107256,57.6127304 L11.8107256,44.8096926 L48.1509148,44.8096926 C48.8393691,44.8096926 49.4685174,44.4182424 49.7758991,43.7986791 L56.327571,30.6095255 L62.8792429,43.7986791 C63.186877,44.4182424 63.8160252,44.8096926 64.5044795,44.8096926 L68.1388013,44.8096926 L68.1388013,57.6127304 Z M11.1164669,28.3489705 L53.3877603,28.3489705 L47.0278864,41.1517543 L4.75709779,41.1517543 L11.1164669,28.3489705 Z M46.0683912,24.6910323 L33.8811356,24.6910323 C34.6649842,22.049696 37.099306,20.1186095 39.9747634,20.1186095 C42.8499685,20.1186095 45.2845426,22.049696 46.0683912,24.6910323 L46.0683912,24.6910323 Z M49.7998738,24.6910323 C48.9425868,20.0149679 44.864858,16.4604172 39.9747634,16.4604172 C35.0849211,16.4604172 31.0069401,20.0149679 30.149653,24.6910323 L25.5565931,24.6910323 C26.4542587,17.4841319 32.5753943,11.8890105 39.9747634,11.8890105 C47.3736278,11.8890105 53.4947634,17.4841319 54.392429,24.6910323 L49.7998738,24.6910323 Z M23.9141956,10.3542006 C28.204164,6.03605533 33.9078864,3.65788743 39.9747634,3.65814145 C51.8869401,3.65814145 61.6855521,12.9368574 62.614511,24.6910323 L58.0529968,24.6910323 C57.1381703,15.4621049 49.3799369,8.23107229 39.9747634,8.23107229 C30.5693375,8.23107229 22.8105994,15.4621049 21.8957729,24.6910323 L17.339306,24.6910323 C17.762776,19.2742354 20.0555205,14.2382197 23.9141956,10.3542006 L23.9141956,10.3542006 Z M79.7577287,42.1627678 L71.5810726,25.7020458 C71.2734385,25.0824825 70.6442902,24.6910323 69.955836,24.6910323 L66.2576656,24.6910323 C65.3206309,10.9178787 53.8914826,0.000203218791 39.9747634,0.000203218791 L39.9742587,0.000203218791 C32.9370347,0.000203218791 26.3205047,2.7588983 21.3443533,7.76773345 C16.7989905,12.3432045 14.1201262,18.295991 13.6900946,24.6910323 L9.99343849,24.6910323 C9.30523659,24.6910323 8.67608833,25.0824825 8.36820189,25.7020458 L0.191798107,42.1627678 C-0.0898422713,42.7297482 -0.0598107256,43.4031645 0.271293375,43.9422023 C0.602397476,44.4814942 1.1873817,44.8096926 1.8170347,44.8096926 L8.17640379,44.8096926 L8.17640379,59.4416995 C8.17640379,60.4519509 8.99003155,61.2706686 9.99343849,61.2706686 L69.955836,61.2706686 C70.9594953,61.2706686 71.773123,60.4519509 71.773123,59.4416995 L71.773123,44.8096926 L78.1327445,44.8096926 C78.7623975,44.8096926 79.3471293,44.4814942 79.6784858,43.9422023 C80.0093375,43.4029105 80.0393691,42.7297482 79.7577287,42.1627678 L79.7577287,42.1627678 Z" mask="url(#b)"/>
  </g>
</svg>
