<svg xmlns="http://www.w3.org/2000/svg" width="80" height="76" viewBox="0 0 80 76" xmlns:xlink="http://www.w3.org/1999/xlink">
  <defs>
    <polygon id="a" points="0 0 0 75.863 79.883 75.863 79.883 0 0 0"/>
  </defs>
  <g fill="none" fill-rule="evenodd">
    <mask id="b" fill="white">
      <use xlink:href="#a"/>
    </mask>
    <path fill="#3E53A4" d="M39.9418394,4.77705366 L73.9368759,31.2827122 L66.8209635,35.1004683 C61.545635,25.2294439 51.2279708,18.966322 39.9415474,18.966322 C28.6548321,18.966322 18.3395036,25.2285659 13.0632993,35.0990049 L5.94680292,31.2824195 L39.9418394,4.77705366 Z M58.4811095,39.5747122 C54.8507445,32.7472976 47.8034453,28.4492488 39.9415474,28.4492488 C32.0819854,28.4492488 25.035562,32.7464195 21.4043212,39.5717854 L16.7707445,37.0872 C21.3199416,28.5789073 30.2119124,23.1809561 39.9415474,23.1809561 C49.6708905,23.1809561 58.5654891,28.580078 63.1141022,37.0889561 L58.4811095,39.5747122 Z M50.1345401,44.052761 C48.1543942,40.3541268 44.2597956,37.9321756 39.9415474,37.9321756 C35.625635,37.9321756 31.7322044,40.3523707 29.7511825,44.0483707 L25.1114745,41.5602732 C28.0171679,36.1005659 33.6542482,32.6641756 39.9415474,32.6641756 C46.2311825,32.6641756 51.8694307,36.1020293 54.7742482,41.5634927 L50.1345401,44.052761 Z M39.9488467,49.5177366 L33.4603796,46.0377366 C34.7211095,43.6877854 37.195562,42.1468098 39.9415474,42.1468098 C42.6901606,42.1468098 45.166073,43.6898341 46.425635,46.0427122 L39.9488467,49.5177366 Z M4.20461314,68.4873951 L4.20461314,35.1276878 L35.4936642,51.908078 L4.21483212,68.689639 C4.21045255,68.622322 4.20461314,68.5558829 4.20461314,68.4873951 L4.20461314,68.4873951 Z M75.6787737,68.4882732 C75.6787737,68.5558829 75.6729343,68.6217366 75.6688467,68.6884683 L49.1009635,54.4210537 C48.0778978,53.8716878 46.8037372,54.2571512 46.2551241,55.2832976 C45.7068029,56.3094439 46.0919124,57.5864195 47.1152701,58.136078 L72.2778978,71.6486634 L7.6089927,71.6486634 L75.6787737,35.1282732 L75.6787737,68.4882732 Z M79.0708905,29.9483707 L79.0717664,29.9469073 L41.2326423,0.443882927 C40.4732263,-0.147629268 39.4104526,-0.147921951 38.6513285,0.443882927 L0.811620438,29.9469073 L0.812788321,29.948078 C0.319065693,30.3338341 -5.83941605e-05,30.9341268 -5.83941605e-05,31.6102244 L-5.83941605e-05,68.4873951 C-5.83941605e-05,72.5545171 3.30067153,75.8632976 7.35760584,75.8632976 L72.525781,75.8632976 C76.5827153,75.8632976 79.8834453,72.5551024 79.8834453,68.4882732 L79.8834453,31.6102244 C79.8834453,30.9341268 79.5646131,30.3341268 79.0708905,29.9483707 L79.0708905,29.9483707 Z" mask="url(#b)"/>
  </g>
</svg>
