<svg xmlns="http://www.w3.org/2000/svg" width="80" height="54" viewBox="0 0 80 54">
  <g fill="#3E53A4" fill-rule="evenodd">
    <path d="M23.2133731,25.1198304 C23.2133731,26.0676478 23.9832836,26.8357683 24.9327761,26.8357683 C25.8825075,26.8357683 26.6521791,26.0676478 26.6521791,25.1198304 C26.6521791,21.8080701 29.3518806,19.1138092 32.6703284,19.1138092 C33.6198209,19.1138092 34.3897313,18.3456886 34.3897313,17.3978712 C34.3897313,16.4500538 33.6198209,15.6819332 32.6703284,15.6819332 C27.4557612,15.6819332 23.2133731,19.9157718 23.2133731,25.1198304"/>
    <path d="M46.4247881,25.1198304 C46.4247881,32.6885467 40.2545194,38.8463808 32.6702806,38.8463808 C25.0860418,38.8463808 18.9157731,32.6885467 18.9157731,25.1198304 C18.9157731,17.5508757 25.0860418,11.3930416 32.6702806,11.3930416 C40.2545194,11.3930416 46.4247881,17.5508757 46.4247881,25.1198304 M15.4791164,25.0364167 C15.4776836,25.0643007 15.4748179,25.0917081 15.4748179,25.1198304 C15.4748179,34.5813217 23.1880119,42.2789717 32.668609,42.2789717 C32.6743403,42.2789717 32.6798328,42.2782567 32.6855642,42.2780184 C42.158997,42.269677 49.863594,34.5758402 49.863594,25.1198304 C49.863594,15.6585774 42.1508776,7.96116569 32.6702806,7.96116569 C23.2178627,7.96116569 15.5244896,15.613534 15.4791164,25.0364167"/>
    <path d="M78.2342448,16.5399022 C72.7455284,16.5399022 69.7458866,13.5942087 66.9105433,10.3124774 C66.2903642,9.59440498 65.2047522,9.5145662 64.4854687,10.1334955 C63.7664239,10.7524248 63.6859463,11.8358489 64.3061254,12.5534447 C67.1412299,15.8349377 70.6349612,19.3168618 76.5148418,19.8897944 L76.5148418,24.577165 C72.4508418,30.3443848 66.0023642,39.3475777 65.0060657,40.3499714 C64.9208119,40.4329084 64.8432,40.5258551 64.7751403,40.6276197 C64.5688119,40.9364886 64.4754388,41.2899241 64.4873791,41.6374016 L64.4873791,50.0006925 L60.2657672,50.0006925 L57.9364537,46.3986528 C57.5221254,45.7580359 56.7345433,45.4672798 56.0018866,45.6841553 C54.1807522,46.2241991 49.6269612,46.5685783 47.284991,46.5685783 L32.700394,46.5685783 L31.044991,46.5068522 C28.8620657,46.3443147 26.7307224,45.8536041 24.708991,45.0487816 C24.1795582,44.8378642 23.5794388,44.9024502 23.1073194,45.2220436 C22.6352,45.5411604 22.3524537,46.0733395 22.3524537,46.642459 L22.3524537,50.0006925 L18.4286328,50.0006925 L12.7142448,33.1108581 C12.7046925,33.0827358 12.6944239,33.0546135 12.6832,33.0269678 C11.6833194,30.5116888 11.1763343,27.85127 11.1763343,25.1198304 C11.1763343,19.6674375 13.2281552,14.4710053 16.9537672,10.4878843 C20.6543045,6.53145571 25.6572896,4.13295575 31.0445134,3.73161693 L32.7006328,3.67036748 L61.1880358,3.6706058 L57.2455881,7.60510856 C56.5740657,8.27527767 56.5740657,9.36156173 57.2455881,10.0317308 C57.9168716,10.7018999 59.0058269,10.7018999 59.6771104,10.0317308 L66.5549612,3.1682173 C67.0466627,2.67726838 67.194006,1.93917673 66.9277373,1.29808324 C66.6614687,0.656751424 66.034603,0.238729869 65.3392,0.238729869 L32.6688716,0.238491545 C32.6476179,0.238491545 32.6263642,0.238968194 32.6051104,0.239683168 L30.8854687,0.303315868 C30.8651701,0.304030842 30.844394,0.305222466 30.8238567,0.306652414 C24.5587821,0.764474196 18.7402746,3.54858355 14.4398567,8.14610567 C10.1177075,12.7669836 7.73728955,18.7949307 7.73728955,25.1198304 C7.73728955,26.3009677 6.77442388,27.2621313 5.59066269,27.2621313 C4.20511045,27.2621313 3.43878209,25.9956737 3.43878209,25.120307 C3.43878209,24.1724896 2.66911045,23.4043691 1.7193791,23.4043691 C0.769886567,23.4043691 -2.38805969e-05,24.1724896 -2.38805969e-05,25.120307 C-2.38805969e-05,26.4811412 0.554961194,27.8615179 1.52260299,28.9075251 C2.58815522,30.0595868 4.03293134,30.6940072 5.59066269,30.6940072 C6.54278209,30.6940072 7.4392597,30.4544908 8.22469254,30.0338477 C8.51293134,31.4697541 8.92773731,32.8784915 9.47006567,34.2502886 L15.5653493,52.2657307 C15.8015284,52.9630688 16.4568119,53.4325685 17.1944836,53.4325685 L24.0718567,53.4325685 C25.0213493,53.4325685 25.7912597,52.6644479 25.7912597,51.7166305 L25.7912597,49.0400056 C27.4280358,49.507837 29.1128119,49.8066962 30.8238567,49.9318167 C30.8441552,49.9332466 30.8646925,49.9344383 30.884991,49.9351532 L32.6039164,49.9995009 C32.625409,50.0002159 32.6469015,50.0006925 32.668394,50.0006925 L47.2921552,50.0006925 C49.0743642,50.0006925 53.0578866,49.7778589 55.7029015,49.2740405 L57.8841552,52.6470502 C58.2008119,53.1368075 58.7450507,53.4325685 59.3289313,53.4325685 L66.2067821,53.4325685 C67.1562746,53.4325685 67.9261851,52.6644479 67.9261851,51.7166305 L67.9261851,42.2205821 C70.332394,39.3070625 78.0083343,28.4265858 79.6415284,26.106018 C79.8445134,25.8171685 79.9536478,25.4727893 79.9536478,25.1198304 L79.9536478,18.2558402 C79.9536478,17.3082611 79.1839761,16.5399022 78.2342448,16.5399022"/>
    <path d="M62.7596657,20.4006911 C63.9448597,20.4006911 64.9089194,19.4385743 64.9089194,18.256007 C64.9089194,17.0732014 63.9448597,16.1110846 62.7596657,16.1110846 C61.5744716,16.1110846 60.6104119,17.0732014 60.6104119,18.256007 C60.6104119,19.4385743 61.5744716,20.4006911 62.7596657,20.4006911"/>
  </g>
</svg>
