<?xml version="1.0" encoding="utf-8"?>
<!-- Generator: Adobe Illustrator 16.0.0, SVG Export Plug-In . SVG Version: 6.00 Build 0)  -->
<!DOCTYPE svg PUBLIC "-//W3C//DTD SVG 1.1//EN" "http://www.w3.org/Graphics/SVG/1.1/DTD/svg11.dtd">
<svg version="1.1" id="图层_1" xmlns="http://www.w3.org/2000/svg" xmlns:xlink="http://www.w3.org/1999/xlink" x="0px" y="0px"
	 width="200px" height="200px" viewBox="0 0 200 200" enable-background="new 0 0 200 200" xml:space="preserve">
<g>
	<path d="M168.551,148.787l-96.785,0.197c0,0-8.078-0.297-10.155-13.907L49.177,41.625c-1.635-11.083-4.926-16.136-8.319-19.134
		c-3.811-3.367-7.531-4.256-8.238-4.4c-0.382-0.078-0.77-0.118-1.16-0.121l-12.352-0.076c-0.013,0-0.025,0-0.038,0
		c-3.294,0-5.975,2.661-5.995,5.959c-0.02,3.311,2.648,6.012,5.959,6.032l11.493,0.07c2.098-0.082,5.473,2.543,6.179,8.863
		l13.022,97.883c0.004,0.027,0.008,0.056,0.012,0.084c3.054,20.704,15.162,23.561,16.532,23.818
		c0.154,0.029,0.309,0.052,0.465,0.068c0,0,4.406,0.463,4.62,0.463c0.007,0,0.014,0,0.021,0l97.216-0.357
		c3.311-0.012,5.974-2.707,5.974-6.018C174.569,148.458,168.559,148.787,168.551,148.787z"/>
	<path d="M183.697,40.104c-4.485-6.349-11.853-7.039-12.678-7.096c-0.146-0.01-0.293-0.016-0.438-0.015H68.876
		c-3.311,0.011-6.147,3.029-6.136,6.34s2.702,5.993,6.015,5.977l101.53-0.324c0.48,0.082,2.733,0.404,3.617,2.037
		c1.432,2.644,0.33,7.797,0.33,7.797c-0.061,0.244-7.652,51.539-7.652,51.539c-0.084,0.308-0.146,0.625-0.181,0.953
		c-0.968,9.148-5.017,10.293-5.65,10.416l-79.022,7.103c-3.298,0.296-5.731,3.21-5.435,6.509c0.28,3.115,2.896,5.459,5.965,5.459
		c0.18,0,0.361-0.008,0.544-0.023l79.103-7.111c0.958-0.084,4.489-0.588,8.116-3.503c1.622-1.303,3.357-3.313,5.01-6.146
		c1.346-2.307,2.652-6.778,2.807-7.818l8.184-55.117C187.126,49.208,186.816,44.519,183.697,40.104z"/>
	<circle cx="75.938" cy="175.859" r="10.188"/>
	<circle cx="157.313" cy="175.859" r="10.188"/>
</g>
</svg>
